<?xml version="1.0" encoding="utf-8"?>
<!-- Generator: Adobe Illustrator 18.1.1, SVG Export Plug-In . SVG Version: 6.00 Build 0)  -->
<svg version="1.1" id="Layer_1" xmlns="http://www.w3.org/2000/svg" xmlns:xlink="http://www.w3.org/1999/xlink" x="0px" y="0px"
	 width="21.4px" height="14.2px" viewBox="-244 249.8 21.4 14.2" enable-background="new -244 249.8 21.4 14.2"
	 xml:space="preserve">
<path fill="#096CE0" d="M-223.2,256.2C-223.2,256.2-223.2,256.2-223.2,256.2l-5-6.2c-0.3-0.3-0.7-0.4-1.1-0.1
	c-0.3,0.3-0.4,0.7-0.1,1.1l4,5h-18.2c-0.4,0-0.8,0.3-0.8,0.8c0,0.4,0.3,0.8,0.8,0.8h18.3l-4,5c-0.3,0.3-0.2,0.8,0.1,1.1
	c0.1,0.1,0.3,0.2,0.5,0.2s0.4-0.1,0.6-0.3l5-6.2c0,0,0,0,0,0C-222.8,257-222.9,256.6-223.2,256.2z"/>
</svg>
