<?xml version="1.0" encoding="utf-8"?>
<!-- Generator: Adobe Illustrator 18.1.1, SVG Export Plug-In . SVG Version: 6.00 Build 0)  -->
<svg version="1.1" id="Layer_1" xmlns="http://www.w3.org/2000/svg" xmlns:xlink="http://www.w3.org/1999/xlink" x="0px" y="0px"
	 width="21.5px" height="14.2px" viewBox="-242.4 249.8 21.5 14.2" enable-background="new -242.4 249.8 21.5 14.2"
	 xml:space="preserve">
<path fill="#096CE0" d="M-242.2,257.5L-242.2,257.5l5,6.2c0.2,0.2,0.4,0.3,0.6,0.3s0.4-0.1,0.5-0.2c0.3-0.3,0.4-0.8,0.1-1.1l-4-5
	h18.3c0.5,0,0.8-0.4,0.8-0.8c0-0.5-0.4-0.8-0.8-0.8h-18.2l4-5c0.3-0.4,0.2-0.8-0.1-1.1c-0.4-0.3-0.8-0.2-1.1,0.1l-5,6.2l0,0
	C-242.4,256.7-242.5,257.1-242.2,257.5z"/>
</svg>
